<?xml version="1.0" encoding="utf-8"?>
<!-- Generator: Adobe Illustrator 16.0.0, SVG Export Plug-In . SVG Version: 6.00 Build 0)  -->
<!DOCTYPE svg PUBLIC "-//W3C//DTD SVG 1.1//EN" "http://www.w3.org/Graphics/SVG/1.1/DTD/svg11.dtd">
<svg version="1.1" id="Layer_1" xmlns="http://www.w3.org/2000/svg" xmlns:xlink="http://www.w3.org/1999/xlink" x="0px" y="0px"
	 width="125px" height="125px" viewBox="0 0 125 125" enable-background="new 0 0 125 125" xml:space="preserve">
<g>
	<g>
		<defs>
			<circle id="SVGID_1_" cx="62.5" cy="62.5" r="61.5"/>
		</defs>
		<clipPath id="SVGID_2_">
			<use xlink:href="#SVGID_1_"  overflow="visible"/>
		</clipPath>
		<g clip-path="url(#SVGID_2_)">
			<g>
				<g>
					<polygon fill="#BFA94D" points="48.929,64.154 8.022,88.649 54.507,88.237 					"/>
					<polygon fill="#A39041" points="8.022,88.649 27.872,131.142 54.507,88.237 					"/>
					<polygon fill="#A39041" points="48.929,64.154 91.269,119.932 54.507,88.237 					"/>
					<polygon fill="#DDC159" points="27.872,131.142 91.269,119.932 54.507,88.237 					"/>
				</g>
				<polygon fill="#AC6CAD" points="10.666,48.374 -9.548,54.769 -4.924,37.979 				"/>
				<polygon fill="#DDC159" points="118.617,76.968 107.978,93.514 99.162,78.102 				"/>
				<polygon fill="#DDC159" points="114.714,56.181 107.985,66.644 101.785,56.581 				"/>
				<g>
					<polygon fill="#308751" points="90.85,64.427 100.795,-13.627 141.101,38.864 					"/>
					<polygon fill="#48B26B" points="100.795,-13.627 148.043,13.543 141.101,38.864 					"/>
				</g>
				<g>
					<polygon fill="#9B51A0" points="108.248,19.96 89.623,79.714 65.516,34.369 					"/>
					<polygon fill="#C694C3" points="89.623,79.714 56.577,53.345 65.516,34.369 					"/>
				</g>
				<g>
					<polygon fill="#9B51A0" points="34.91,91.489 117.601,74.49 77.035,123.66 					"/>
					<polygon fill="#C694C3" points="117.601,74.49 105.049,121.129 77.035,123.66 					"/>
				</g>
				<g>
					<polygon fill="#308751" points="-21.333,110.537 61.559,113.41 12.472,72.803 					"/>
					<polygon fill="#3A9B5E" points="61.559,113.41 39.89,70.678 12.472,72.803 					"/>
				</g>
				<g>
					<polygon fill="#DDC159" points="20.743,29.663 -11.877,63.179 -1.934,67.358 					"/>
					<polygon fill="#BFA94D" points="20.743,29.663 8.506,84.419 -1.934,67.358 					"/>
					<polygon fill="#A39041" points="-11.877,63.179 8.506,84.419 -1.934,67.358 					"/>
				</g>
				<g>
					<polygon fill="#F05F3E" points="0.015,27.389 24.201,66.133 32.047,59.285 					"/>
					<polygon fill="#DD4B2A" points="0.015,27.389 53.684,56.466 32.047,59.285 					"/>
					<polygon fill="#C63927" points="24.201,66.133 53.684,56.466 32.047,59.285 					"/>
				</g>
				<g>
					<polygon fill="#B94C2A" points="19.778,106.499 33.92,62.635 22.588,62.552 					"/>
					<polygon fill="#A43A23" points="19.778,106.499 4.511,50.622 22.588,62.552 					"/>
					<polygon fill="#8F261D" points="33.92,62.635 4.511,50.622 22.588,62.552 					"/>
				</g>
				<g>
					<polygon fill="#A43A23" points="5.688,62.747 15.388,32.657 7.616,32.6 					"/>
					<polygon fill="#B94C2A" points="5.688,62.747 -4.785,24.416 7.616,32.6 					"/>
					<polygon fill="#8F261D" points="15.388,32.657 -4.785,24.416 7.616,32.6 					"/>
				</g>
				<g>
					<polygon fill="#DDC159" points="44.28,68.242 89.861,-4.448 52.327,-4.448 					"/>
					<polygon fill="#BFA94D" points="44.28,68.242 23.272,-25.326 52.327,-4.448 					"/>
					<polygon fill="#9B51A0" points="112.567,126.044 45.979,105.164 75.032,126.044 					"/>
				</g>
				<g>
					<polygon fill="#BFA94D" points="129.464,49.837 135.166,92.156 71.141,70.502 					"/>
					<polygon fill="#A39041" points="135.166,92.156 145.817,23.019 129.464,49.837 					"/>
					<polygon fill="#DDC159" points="145.817,23.019 71.141,70.502 129.464,49.837 					"/>
				</g>
				<g>
					<polygon fill="#DD4B2A" points="104.691,96.937 125.919,96.937 111.846,120.762 					"/>
				</g>
				<g>
					<polygon fill="#DD4B2A" points="113.348,87.602 131.438,87.602 119.445,107.902 					"/>
					<polygon fill="#C63927" points="131.438,87.602 102.78,80.969 113.348,87.602 					"/>
					<polygon fill="#F05F3E" points="102.78,80.969 119.445,107.902 113.348,87.602 					"/>
				</g>
				<g>
					<polygon fill="#AC6CAD" points="109.076,113.939 135.347,117.133 108.797,137.619 					"/>
					<polygon fill="#9B51A0" points="135.347,117.133 99.852,103.904 109.076,113.939 					"/>
					<polygon fill="#C694C3" points="99.852,103.904 108.797,137.619 109.076,113.939 					"/>
				</g>
				<g>
					<polygon fill="#AC6CAD" points="85.436,24.571 77.243,2.178 109.57,14.489 					"/>
					<polygon fill="#9B51A0" points="77.243,2.178 79.274,36.311 85.436,24.571 					"/>
					<polygon fill="#C694C3" points="79.274,36.311 109.57,14.489 85.436,24.571 					"/>
				</g>
				<g>
					<polygon fill="#3A9B5E" points="62.75,29.167 57.985,56.596 31.323,28.402 					"/>
					<polygon fill="#308751" points="57.985,56.596 76.255,19.716 62.75,29.167 					"/>
					<polygon fill="#48B26B" points="76.255,19.716 31.323,28.402 62.75,29.167 					"/>
				</g>
				<g>
					<polygon fill="#AC6CAD" points="5.22,75.896 1.823,95.448 -17.184,75.35 					"/>
					<polygon fill="#9B51A0" points="1.823,95.448 14.848,69.157 5.22,75.896 					"/>
					<polygon fill="#C694C3" points="14.848,69.157 -17.184,75.35 5.22,75.896 					"/>
				</g>
				<g>
					<polygon fill="#AC6CAD" points="29.998,-3.166 38.779,19.613 5.502,7.484 					"/>
					<polygon fill="#9B51A0" points="38.779,19.613 36.089,-15.258 29.998,-3.166 					"/>
					<polygon fill="#C694C3" points="36.089,-15.258 5.502,7.484 29.998,-3.166 					"/>
				</g>
				<polygon fill="#DDC159" points="91.001,12.987 115.305,12.987 103.153,45.595 				"/>
				<polygon fill="#48B26B" points="58.099,9.329 81.746,4.35 78.394,38.567 				"/>
				<polygon fill="#48B26B" points="85.962,78.73 100.851,75.596 96.571,89.011 				"/>
				<polygon fill="#3A9B5E" points="92.756,130.957 100.703,110.566 108.833,123.009 				"/>
				<polygon fill="#3A9B5E" points="4.432,61.413 12.379,41.019 20.51,53.462 				"/>
				<polygon fill="#C694C3" points="-6.896,33.215 1.05,12.823 17.336,29.378 				"/>
				<polygon fill="#BFA94D" points="46.644,10 66.279,18.91 41.299,40.8 				"/>
				<polygon fill="#DD4B2A" points="60.746,-7.634 68.756,6.756 40.26,10.306 				"/>
				<polygon fill="#AC3224" points="104.996,69.034 125.614,69.034 125.614,84.901 				"/>
				<polygon fill="#A43A23" points="82.414,37.38 96.832,51.201 83.343,62.294 				"/>
				<polygon fill="#C63927" points="9.371,2.031 23.788,15.852 10.298,26.946 				"/>
				<polygon fill="#8F261D" points="87.214,56.781 101.631,62.639 88.14,73.731 				"/>
				<polygon fill="#DD4B2A" points="61.421,33.247 81.344,20.888 93.407,36.219 				"/>
				<g>
					<polygon fill="#C694C3" points="23.55,5.486 23.55,40.505 81.288,63.251 					"/>
					<polygon fill="#AC6CAD" points="23.55,5.486 2.406,42.792 23.55,40.505 					"/>
					<polygon fill="#9B51A0" points="2.406,42.792 81.288,63.251 23.55,39.183 					"/>
				</g>
				<g>
					<polygon fill="#F05F3E" points="67.139,51.084 67.139,86.104 124.876,108.85 					"/>
					<polygon fill="#DD4B2A" points="67.139,51.084 45.996,88.392 67.139,86.104 					"/>
					<polygon fill="#AC3224" points="45.996,88.392 124.876,108.85 67.139,84.78 					"/>
				</g>
				<g>
					<polygon fill="#BFA94D" points="21.416,73.904 45.547,92.948 37.702,66.854 					"/>
					<polygon fill="#A39041" points="45.547,92.948 72.657,74.873 37.702,66.854 					"/>
					<polygon fill="#A39041" points="21.416,73.904 54.356,41.014 37.702,66.854 					"/>
					<polygon fill="#DDC159" points="72.657,74.873 54.356,41.014 37.702,66.854 					"/>
				</g>
				<g>
					<g>
						<polygon fill="#C694C3" points="-1.039,133.131 9.859,105.287 34.421,125.921 						"/>
						<polygon fill="#C694C3" points="9.859,105.287 -4.727,79.868 33.742,108.018 						"/>
						<polygon fill="#AC6CAD" points="33.742,108.018 34.421,125.921 9.859,105.287 						"/>
					</g>
					<polygon fill="#9B51A0" points="-1.039,133.131 -4.727,79.868 9.859,105.287 					"/>
				</g>
				<g>
					<polygon fill="#C63927" points="115.647,55.99 152.225,32.688 143.663,64.11 					"/>
					<polygon fill="#DD4B2A" points="152.225,32.688 156.797,57.795 143.663,64.11 					"/>
				</g>
				<g>
					<polygon fill="#C63927" points="65.387,9.77 101.964,-13.534 93.403,17.89 					"/>
					<polygon fill="#DD4B2A" points="101.964,-13.534 106.538,11.574 93.403,17.89 					"/>
				</g>
				<g>
					<polygon fill="#C694C3" points="44.985,47.341 -11.616,21.927 -11.616,48.497 					"/>
					<polygon fill="#AC6CAD" points="44.985,47.341 -25.268,67.854 -11.616,48.497 					"/>
					<polygon fill="#9B51A0" points="-11.616,21.927 -25.268,67.854 -11.616,48.497 					"/>
				</g>
				<polygon fill="#B94C2A" points="-5.74,-0.906 16.342,-0.906 5.302,17.353 				"/>
				<polygon fill="#DD4B2A" points="38.214,36.922 52.879,36.922 45.547,56.599 				"/>
				<polygon fill="#DD4B2A" points="96.441,117.569 98.729,130.431 75.696,127.07 				"/>
				<polygon fill="#DD4B2A" points="47.471,46.99 49.759,59.853 26.726,56.492 				"/>
				<g>
					<polygon fill="#AC6CAD" points="130.075,98.237 123.358,121.145 107.157,105.196 					"/>
					<polygon fill="#DDC159" points="77.271,114.935 70.825,136.907 55.287,121.611 					"/>
					<polygon fill="#8F261D" points="102.994,98.299 108.984,110.184 85.763,112.276 					"/>
				</g>
				<g>
					<polygon fill="#DDC159" points="49.516,19.158 30.285,35.549 25.887,14.433 					"/>
					<polygon fill="#9B51A0" points="66.279,36.003 59.834,57.978 44.295,42.681 					"/>
					<polygon fill="#B94C2A" points="44.563,16.03 50.553,27.917 27.331,30.008 					"/>
				</g>
				<g>
					<polygon fill="#3A9B5E" points="14.112,22.895 -12.399,23.403 6.615,5.486 					"/>
					<polygon fill="#308751" points="-12.399,23.403 29.069,31.704 14.112,22.895 					"/>
					<polygon fill="#48B26B" points="29.069,31.704 6.615,5.486 14.112,22.895 					"/>
				</g>
			</g>
		</g>
	</g>
	<g>
		<defs>
			<circle id="SVGID_3_" cx="62.5" cy="62.5" r="61.5"/>
		</defs>
		<clipPath id="SVGID_4_">
			<use xlink:href="#SVGID_3_"  overflow="visible"/>
		</clipPath>
		
			<rect x="43.19" y="160.277" opacity="0.2" clip-path="url(#SVGID_4_)" fill="#FFFFFF" enable-background="new    " width="123" height="123"/>
	</g>
	<g>
		<defs>
			<circle id="SVGID_5_" cx="62.5" cy="62.5" r="61.5"/>
		</defs>
		<clipPath id="SVGID_6_">
			<use xlink:href="#SVGID_5_"  overflow="visible"/>
		</clipPath>
		<circle opacity="0.5" clip-path="url(#SVGID_6_)" fill="#FFFFFF" enable-background="new    " cx="62.5" cy="62.5" r="61.5"/>
	</g>
	<g>
		<defs>
			<circle id="SVGID_7_" cx="62.5" cy="62.5" r="61.5"/>
		</defs>
		<clipPath id="SVGID_8_">
			<use xlink:href="#SVGID_7_"  overflow="visible"/>
		</clipPath>
		<path clip-path="url(#SVGID_8_)" fill="#09BCD4" d="M98.641,43.752c-5.898-7.37-15.633-12.804-27.082-14.175
			c-19.995-2.394-46.944-2.008-48.365,19.981c-1.03,15.918,21.938,35.014,41.934,37.407c5.821,0.695,11.443,0.267,16.534-1.086
			c12.393-3.29,21.627-12.041,22.888-23.274c0.596-5.329-0.68-10.536-3.393-15.193L98.641,43.752z"/>
	</g>
	<g>
		<defs>
			<circle id="SVGID_9_" cx="62.5" cy="62.5" r="61.5"/>
		</defs>
		<clipPath id="SVGID_10_">
			<use xlink:href="#SVGID_9_"  overflow="visible"/>
		</clipPath>
		<polygon clip-path="url(#SVGID_10_)" fill="#09BCD4" points="96.016,93.06 82.184,82.813 92.007,77.876 		"/>
	</g>
	<g>
		<defs>
			<circle id="SVGID_11_" cx="62.5" cy="62.5" r="61.5"/>
		</defs>
		<clipPath id="SVGID_12_">
			<use xlink:href="#SVGID_11_"  overflow="visible"/>
		</clipPath>
		<g clip-path="url(#SVGID_12_)">
			<path fill="#FFFFFF" d="M34.499,56.063v-1.144h-1.794l0.743-4.216h-1.215l-0.726,4.216h-2.956l0.744-4.216h-1.161l-0.762,4.216
				h-2.448v1.144h2.249l-0.525,2.905h-1.529l0.562,1.143h0.75l-0.195,1.065l0.894,1.557l0.481-2.621h2.974l-0.779,4.442h1.196
				l0.779-4.442h2.449v-1.144h-2.231l0.508-2.905H34.499z M30.782,58.968h-2.956l0.525-2.905h2.956L30.782,58.968z"/>
			<path fill="#FFFFFF" d="M39.142,64.797c-1.633,0-3.047-0.731-3.881-2.006v1.762h-1.342v-13.85h1.342v5.359
				c0.853-1.293,2.231-2.005,3.898-2.005c2.938,0,5.223,2.343,5.223,5.36C44.382,62.491,42.134,64.797,39.142,64.797z
				 M39.123,55.332c-2.212,0-3.954,1.781-3.954,4.048c0,2.267,1.76,4.143,3.935,4.143c2.231,0,3.917-1.781,3.917-4.143
				C43.023,57.074,41.354,55.332,39.123,55.332z"/>
			<path fill="#FFFFFF" d="M53.232,64.553v-1.799c-1.052,1.461-2.139,2.043-3.826,2.043c-3.046,0-5.313-2.287-5.313-5.343
				c0-3.074,2.249-5.397,5.223-5.397c1.723,0,2.937,0.637,3.917,2.062V54.3h1.342v10.251L53.232,64.553L53.232,64.553z
				 M49.352,55.332c-2.158,0-3.899,1.8-3.899,4.03c0,2.343,1.722,4.161,3.971,4.161c2.141,0,3.809-1.818,3.809-4.143
				C53.232,57.093,51.527,55.332,49.352,55.332z"/>
			<path fill="#FFFFFF" d="M62.48,64.553v-5.378c0-2.793-1.233-3.843-3.064-3.843c-1.796,0-3.029,1.069-3.029,3.58v5.641h-1.343
				V54.3h1.343v1.331c0.834-1.049,1.886-1.575,3.19-1.575c2.485,0,4.244,1.519,4.244,5.117v5.378L62.48,64.553L62.48,64.553z"/>
			<path fill="#FFFFFF" d="M73.09,64.553v-1.856c-0.998,1.481-2.122,2.1-3.773,2.1c-3.063,0-5.404-2.324-5.404-5.361
				c0-3.055,2.285-5.379,5.278-5.379c1.56,0,2.919,0.656,3.899,1.875v-5.229h1.341v13.85H73.09z M69.153,55.332
				c-2.158,0-3.88,1.8-3.88,4.048c0,2.343,1.742,4.143,4.007,4.143c2.122,0,3.863-1.875,3.863-4.124
				C73.144,57.149,71.349,55.332,69.153,55.332z"/>
			<path fill="#FFFFFF" d="M82.301,64.553v-1.593c-0.671,1.274-1.65,1.837-3.191,1.837c-2.521,0-4.206-1.388-4.206-4.967V54.3h1.342
				v5.529c0,2.604,1.052,3.693,2.974,3.693c1.813,0,3.082-1.163,3.082-3.956V54.3h1.342v10.251L82.301,64.553L82.301,64.553z"/>
			<path fill="#FFFFFF" d="M91.549,64.553v-5.378c0-2.793-1.233-3.843-3.064-3.843c-1.795,0-3.027,1.069-3.027,3.58v5.641h-1.342
				V54.3h1.342v1.331c0.834-1.049,1.885-1.575,3.19-1.575c2.484,0,4.245,1.519,4.245,5.117v5.378L91.549,64.553L91.549,64.553z"/>
			<path fill="#FFFFFF" d="M102.357,66.745c-0.851,1.163-2.303,1.838-4.026,1.838c-2.502,0-4.261-1.313-4.985-3.711h1.306
				c1.015,1.855,1.976,2.437,3.644,2.437c2.395,0,3.646-1.443,3.646-4.142v-0.694c-0.78,1.574-2.013,2.324-3.79,2.324
				c-2.901,0-5.17-2.324-5.17-5.324c0-3.093,2.178-5.416,5.078-5.416c1.669,0,2.885,0.656,3.881,2.062V54.3h1.341v8.416
				C103.282,64.722,103.028,65.808,102.357,66.745z M98.133,55.332c-2.194,0-3.791,1.687-3.791,4.03c0,2.38,1.632,4.161,3.809,4.161
				c2.156,0,3.79-1.818,3.79-4.218C101.94,57.074,100.272,55.332,98.133,55.332z"/>
		</g>
	</g>
	<g>
		<defs>
			<circle id="SVGID_13_" cx="62.5" cy="62.5" r="61.5"/>
		</defs>
		<clipPath id="SVGID_14_">
			<use xlink:href="#SVGID_13_"  overflow="visible"/>
		</clipPath>
		<path clip-path="url(#SVGID_14_)" fill="#3F4DA1" d="M27.354,85.163c0,7.983,6.071,14.895,14.917,18.242
			c3.633,1.373,7.732,2.147,12.073,2.147c14.905,0,26.987-9.128,26.987-20.39c0-11.261-12.082-20.39-26.987-20.39
			C39.437,64.773,27.354,73.902,27.354,85.163z"/>
	</g>
	<g>
		<defs>
			<circle id="SVGID_15_" cx="62.5" cy="62.5" r="61.5"/>
		</defs>
		<clipPath id="SVGID_16_">
			<use xlink:href="#SVGID_15_"  overflow="visible"/>
		</clipPath>
		<polygon clip-path="url(#SVGID_16_)" fill="#3F4DA1" points="33.045,110.637 42.27,103.405 35.72,99.919 		"/>
	</g>
	<g>
		<defs>
			<circle id="SVGID_17_" cx="62.5" cy="62.5" r="61.5"/>
		</defs>
		<clipPath id="SVGID_18_">
			<use xlink:href="#SVGID_17_"  overflow="visible"/>
		</clipPath>
		<g clip-path="url(#SVGID_18_)">
			<path fill="#FFFFFF" d="M47.444,87.757v2.256c0,2.717-1.314,4.27-3.848,4.27c-2.535,0-3.849-1.553-3.849-4.27v-8.83
				c0-2.716,1.313-4.269,3.849-4.269c2.534,0,3.848,1.553,3.848,4.269v1.65h-2.44v-1.819c0-1.213-0.517-1.674-1.339-1.674
				c-0.82,0-1.337,0.461-1.337,1.674v9.168c0,1.212,0.517,1.65,1.337,1.65c0.822,0,1.339-0.437,1.339-1.65v-2.426L47.444,87.757
				L47.444,87.757z"/>
			<path fill="#FFFFFF" d="M54.461,89.164h0.047l1.737-12.056h3.591v16.979h-2.44V81.911h-0.047l-1.737,12.177h-2.44L51.292,82.08
				h-0.046v12.008h-2.253V77.108h3.59L54.461,89.164z"/>
			<path fill="#FFFFFF" d="M65.185,76.914c2.512,0,3.802,1.553,3.802,4.269v0.534h-2.44v-0.703c0-1.213-0.47-1.674-1.291-1.674
				s-1.29,0.461-1.29,1.674c0,1.237,0.515,2.158,2.204,3.686c2.16,1.967,2.842,3.373,2.842,5.313c0,2.718-1.315,4.27-3.85,4.27
				s-3.849-1.552-3.849-4.27V88.97h2.44v1.212c0,1.212,0.516,1.65,1.337,1.65s1.338-0.437,1.338-1.65
				c0-1.236-0.517-2.157-2.206-3.688c-2.158-1.964-2.84-3.371-2.84-5.312C61.384,78.467,62.674,76.914,65.185,76.914z"/>
		</g>
	</g>
	<g>
		<defs>
			<circle id="SVGID_19_" cx="62.5" cy="62.5" r="61.5"/>
		</defs>
		<clipPath id="SVGID_20_">
			<use xlink:href="#SVGID_19_"  overflow="visible"/>
		</clipPath>
		<path clip-path="url(#SVGID_20_)" fill="#09BCD4" d="M20.395,35.241c2.528,1.557,5.316,2.807,8.319,3.691
			c-2.835-2.22-4.783-5.268-5.376-8.58c2.575,1.997,5.515,3.653,8.734,4.873l-6.077,7.562
			C23.707,40.538,21.808,37.982,20.395,35.241z"/>
	</g>
	<g>
		<defs>
			<circle id="SVGID_21_" cx="62.5" cy="62.5" r="61.5"/>
		</defs>
		<clipPath id="SVGID_22_">
			<use xlink:href="#SVGID_21_"  overflow="visible"/>
		</clipPath>
		<path clip-path="url(#SVGID_22_)" fill="#09BCD4" d="M96.444,16.249c1.4,1.03,2.353,2.375,2.669,3.957
			c0.598,2.996-1.22,6.141-4.479,8.452c2.172-0.511,4.145-1.337,5.808-2.366c0.008,0.036,0.017,0.071,0.023,0.108
			c0.838,4.184-3.05,8.653-8.976,10.747c1.157-0.041,2.353-0.187,3.564-0.446c0.857-0.183,1.68-0.415,2.473-0.689
			c-0.958,3.609-5.003,6.994-10.396,8.445L71.919,30.849C82.414,28.04,91.112,22.656,96.444,16.249z"/>
	</g>
</g>
<circle fill="none" stroke="#FFFFFF" stroke-width="4" stroke-miterlimit="10" cx="62.5" cy="62.5" r="61.5"/>
</svg>
