<?xml version="1.0" encoding="utf-8"?>
<!-- Generator: Adobe Illustrator 16.0.0, SVG Export Plug-In . SVG Version: 6.00 Build 0)  -->
<!DOCTYPE svg PUBLIC "-//W3C//DTD SVG 1.1//EN" "http://www.w3.org/Graphics/SVG/1.1/DTD/svg11.dtd">
<svg version="1.1" id="Layer_1" xmlns="http://www.w3.org/2000/svg" xmlns:xlink="http://www.w3.org/1999/xlink" x="0px" y="0px"
	 width="125px" height="125px" viewBox="0 0 125 125" enable-background="new 0 0 125 125" xml:space="preserve">
<g>
	<defs>
		<circle id="SVGID_1_" cx="62.817" cy="62.044" r="62.491"/>
	</defs>
	<clipPath id="SVGID_2_">
		<use xlink:href="#SVGID_1_"  overflow="visible"/>
	</clipPath>
	<g clip-path="url(#SVGID_2_)">
		<g>
			<g>
				<polygon fill="#BFA94D" points="49.027,63.726 7.461,88.614 54.695,88.197 				"/>
				<polygon fill="#A39041" points="7.461,88.614 27.631,131.793 54.695,88.197 				"/>
				<polygon fill="#A39041" points="49.027,63.726 92.049,120.402 54.695,88.197 				"/>
				<polygon fill="#DDC159" points="27.631,131.793 92.049,120.402 54.695,88.197 				"/>
			</g>
			<polygon fill="#429189" points="10.148,47.69 -10.391,54.188 -5.693,37.127 			"/>
			<polygon fill="#DDC159" points="119.838,76.745 109.028,93.558 100.07,77.897 			"/>
			<polygon fill="#DDC159" points="115.871,55.623 109.035,66.255 102.736,56.03 			"/>
			<g>
				<polygon fill="#308751" points="91.623,64.002 101.729,-15.311 142.686,38.028 				"/>
				<polygon fill="#48B26B" points="101.729,-15.311 153.738,6.298 142.686,38.028 				"/>
			</g>
			<g>
				<polygon fill="#377E77" points="109.303,18.818 90.378,79.535 65.881,33.458 				"/>
				<polygon fill="#4BA59C" points="90.378,79.535 56.799,52.741 65.881,33.458 				"/>
			</g>
			<g>
				<polygon fill="#377E77" points="34.783,91.501 118.806,74.227 77.586,124.19 				"/>
				<polygon fill="#4BA59C" points="118.806,74.227 106.052,121.617 77.586,124.19 				"/>
			</g>
			<g>
				<polygon fill="#308751" points="-22.367,110.856 61.861,113.775 11.982,72.512 				"/>
				<polygon fill="#3A9B5E" points="61.861,113.775 39.842,70.353 11.982,72.512 				"/>
			</g>
			<g>
				<polygon fill="#DDC159" points="20.387,28.678 -12.759,62.733 -2.656,66.98 				"/>
				<polygon fill="#BFA94D" points="20.387,28.678 7.953,84.316 -2.656,66.98 				"/>
				<polygon fill="#A39041" points="-12.759,62.733 7.953,84.316 -2.656,66.98 				"/>
			</g>
			<g>
				<polygon fill="#F05F3E" points="-0.675,26.367 23.9,65.734 31.873,58.777 				"/>
				<polygon fill="#DD4B2A" points="-0.675,26.367 53.858,55.913 31.873,58.777 				"/>
				<polygon fill="#C63927" points="23.9,65.734 53.858,55.913 31.873,58.777 				"/>
			</g>
			<g>
				<polygon fill="#B94C2A" points="19.407,106.753 33.776,62.181 22.263,62.097 				"/>
				<polygon fill="#A43A23" points="19.407,106.753 3.894,49.974 22.263,62.097 				"/>
				<polygon fill="#8F261D" points="33.776,62.181 3.894,49.974 22.263,62.097 				"/>
			</g>
			<g>
				<polygon fill="#A43A23" points="5.089,62.295 14.946,31.72 7.048,31.663 				"/>
				<polygon fill="#B94C2A" points="5.089,62.295 -5.552,23.346 7.048,31.663 				"/>
				<polygon fill="#8F261D" points="14.946,31.72 -5.552,23.346 7.048,31.663 				"/>
			</g>
			<g>
				<polygon fill="#DDC159" points="44.305,67.879 90.619,-5.982 52.479,-5.982 				"/>
				<polygon fill="#BFA94D" points="44.305,67.879 22.958,-27.198 52.479,-5.982 				"/>
				<polygon fill="#377E77" points="113.691,126.612 46.03,105.396 75.552,126.612 				"/>
			</g>
			<g>
				<polygon fill="#BFA94D" points="130.861,49.177 136.655,92.178 71.598,70.175 				"/>
				<polygon fill="#A39041" points="136.655,92.178 151.478,15.927 130.861,49.177 				"/>
				<polygon fill="#DDC159" points="151.478,15.927 71.598,70.175 130.861,49.177 				"/>
			</g>
			<g>
				<polygon fill="#DD4B2A" points="105.688,97.036 127.259,97.036 112.959,121.245 				"/>
			</g>
			<g>
				<polygon fill="#DD4B2A" points="114.485,87.55 132.865,87.55 120.681,108.178 				"/>
				<polygon fill="#C63927" points="132.865,87.55 103.746,80.81 114.485,87.55 				"/>
				<polygon fill="#F05F3E" points="103.746,80.81 120.681,108.178 114.485,87.55 				"/>
			</g>
			<g>
				<polygon fill="#429189" points="110.144,114.313 136.84,117.558 109.861,138.374 				"/>
				<polygon fill="#377E77" points="136.84,117.558 100.771,104.115 110.144,114.313 				"/>
				<polygon fill="#4BA59C" points="100.771,104.115 109.861,138.374 110.144,114.313 				"/>
			</g>
			<g>
				<polygon fill="#429189" points="86.123,23.503 77.799,0.749 110.646,13.258 				"/>
				<polygon fill="#377E77" points="77.799,0.749 79.861,35.433 86.123,23.503 				"/>
				<polygon fill="#4BA59C" points="79.861,35.433 110.646,13.258 86.123,23.503 				"/>
			</g>
			<g>
				<polygon fill="#3A9B5E" points="63.072,28.173 58.23,56.044 31.138,27.396 				"/>
				<polygon fill="#308751" points="58.23,56.044 76.794,18.57 63.072,28.173 				"/>
				<polygon fill="#48B26B" points="76.794,18.57 31.138,27.396 63.072,28.173 				"/>
			</g>
			<g>
				<polygon fill="#429189" points="4.614,75.655 1.162,95.524 -18.152,75.101 				"/>
				<polygon fill="#377E77" points="1.162,95.524 14.397,68.809 4.614,75.655 				"/>
				<polygon fill="#4BA59C" points="14.397,68.809 -18.152,75.101 4.614,75.655 				"/>
			</g>
			<g>
				<polygon fill="#429189" points="29.791,-4.681 38.714,18.466 4.9,6.142 				"/>
				<polygon fill="#377E77" points="38.714,18.466 35.98,-16.967 29.791,-4.681 				"/>
				<polygon fill="#4BA59C" points="35.98,-16.967 4.9,6.142 29.791,-4.681 				"/>
			</g>
			<polygon fill="#DDC159" points="91.779,11.733 116.473,11.733 104.126,44.866 			"/>
			<polygon fill="#48B26B" points="58.346,8.015 82.374,2.957 78.969,37.725 			"/>
			<polygon fill="#48B26B" points="86.658,78.535 101.787,75.351 97.438,88.982 			"/>
			<polygon fill="#3A9B5E" points="93.561,131.605 101.636,110.885 109.897,123.528 			"/>
			<polygon fill="#3A9B5E" points="3.814,60.938 11.889,40.217 20.15,52.861 			"/>
			<polygon fill="#4BA59C" points="-7.698,32.288 0.377,11.566 16.926,28.388 			"/>
			<polygon fill="#BFA94D" points="46.705,8.697 66.658,17.75 41.274,39.994 			"/>
			<polygon fill="#DD4B2A" points="61.035,-9.222 69.174,5.401 40.218,9.008 			"/>
			<polygon fill="#AC3224" points="105.998,68.684 126.948,68.684 126.948,84.806 			"/>
			<polygon fill="#A43A23" points="83.054,36.519 97.703,50.562 83.996,61.834 			"/>
			<polygon fill="#C63927" points="8.832,0.6 23.481,14.644 9.773,25.917 			"/>
			<polygon fill="#8F261D" points="87.93,56.233 102.578,62.185 88.871,73.457 			"/>
			<polygon fill="#DD4B2A" points="61.722,32.318 81.966,19.761 94.223,35.339 			"/>
			<g>
				<polygon fill="#4BA59C" points="23.24,4.111 23.24,39.695 81.909,62.807 				"/>
				<polygon fill="#429189" points="23.24,4.111 1.755,42.019 23.24,39.695 				"/>
				<polygon fill="#377E77" points="1.755,42.019 81.909,62.807 23.24,38.35 				"/>
			</g>
			<g>
				<polygon fill="#F05F3E" points="67.531,50.445 67.531,86.028 126.199,109.141 				"/>
				<polygon fill="#DD4B2A" points="67.531,50.445 46.046,88.352 67.531,86.028 				"/>
				<polygon fill="#AC3224" points="46.046,88.352 126.199,109.141 67.531,84.684 				"/>
			</g>
			<g>
				<polygon fill="#BFA94D" points="21.07,73.632 45.591,92.984 37.62,66.467 				"/>
				<polygon fill="#A39041" points="45.591,92.984 73.139,74.617 37.62,66.467 				"/>
				<polygon fill="#A39041" points="21.07,73.632 54.542,40.212 37.62,66.467 				"/>
				<polygon fill="#DDC159" points="73.139,74.617 54.542,40.212 37.62,66.467 				"/>
			</g>
			<g>
				<g>
					<polygon fill="#4BA59C" points="-1.746,133.813 9.328,105.521 34.287,126.487 					"/>
					<polygon fill="#4BA59C" points="9.328,105.521 -5.493,79.692 33.595,108.296 					"/>
					<polygon fill="#429189" points="33.595,108.296 34.287,126.487 9.328,105.521 					"/>
				</g>
				<polygon fill="#377E77" points="-1.746,133.813 -5.493,79.692 9.328,105.521 				"/>
			</g>
			<g>
				<polygon fill="#C63927" points="116.821,55.429 157.988,25.751 145.289,63.68 				"/>
				<polygon fill="#DD4B2A" points="157.988,25.751 162.635,51.263 145.289,63.68 				"/>
			</g>
			<g>
				<polygon fill="#C63927" points="65.751,8.463 102.918,-15.216 94.219,16.714 				"/>
				<polygon fill="#DD4B2A" points="102.918,-15.216 107.564,10.296 94.219,16.714 				"/>
			</g>
			<g>
				<polygon fill="#4BA59C" points="45.02,46.64 -12.493,20.817 -12.493,47.815 				"/>
				<polygon fill="#429189" points="45.02,46.64 -26.365,67.486 -12.493,47.815 				"/>
				<polygon fill="#377E77" points="-12.493,20.817 -26.365,67.486 -12.493,47.815 				"/>
			</g>
			<polygon fill="#B94C2A" points="-6.522,-2.384 15.916,-2.384 4.697,16.169 			"/>
			<polygon fill="#DD4B2A" points="38.14,36.054 53.042,36.054 45.591,56.047 			"/>
			<polygon fill="#DD4B2A" points="97.306,118.001 99.631,131.07 76.227,127.655 			"/>
			<polygon fill="#DD4B2A" points="47.546,46.285 49.871,59.354 26.467,55.939 			"/>
			<g>
				<polygon fill="#429189" points="131.482,98.357 124.655,121.633 108.195,105.43 				"/>
				<polygon fill="#DDC159" points="77.827,115.323 71.277,137.651 55.488,122.108 				"/>
				<polygon fill="#8F261D" points="103.965,98.42 110.051,110.497 86.453,112.623 				"/>
			</g>
			<g>
				<polygon fill="#DDC159" points="49.625,18.003 30.083,34.659 25.614,13.202 				"/>
				<polygon fill="#377E77" points="66.658,35.121 60.108,57.448 44.319,41.905 				"/>
				<polygon fill="#B94C2A" points="44.593,14.825 50.678,26.902 27.081,29.029 				"/>
			</g>
			<g>
				<polygon fill="#3A9B5E" points="13.649,21.801 -13.29,22.316 6.031,4.111 				"/>
				<polygon fill="#308751" points="-13.29,22.316 28.849,30.751 13.649,21.801 				"/>
				<polygon fill="#48B26B" points="28.849,30.751 6.031,4.111 13.649,21.801 				"/>
			</g>
		</g>
	</g>
	<rect x="-21.63" y="472.886" opacity="0.2" clip-path="url(#SVGID_2_)" fill="#FFFFFF" width="500" height="500"/>
	<circle opacity="0.5" clip-path="url(#SVGID_2_)" fill="#FFFFFF" cx="62.817" cy="62.044" r="62.491"/>
	<path clip-path="url(#SVGID_2_)" fill="#AC6CAD" d="M99.539,42.995c-5.992-7.489-15.883-13.011-27.518-14.404
		C51.704,26.159,24.32,26.55,22.876,48.894c-1.045,16.174,22.293,35.578,42.61,38.01c5.916,0.708,11.629,0.271,16.801-1.103
		c12.592-3.344,21.977-12.236,23.256-23.65c0.606-5.414-0.689-10.705-3.446-15.438L99.539,42.995z"/>
	<polygon clip-path="url(#SVGID_2_)" fill="#AC6CAD" points="96.873,93.096 82.818,82.684 92.799,77.667 	"/>
	<g clip-path="url(#SVGID_2_)">
		<path fill="#FFFFFF" d="M34.365,55.503v-1.162h-1.824l0.756-4.285h-1.235l-0.737,4.285h-3.004l0.756-4.285h-1.18l-0.773,4.285
			h-2.488v1.162h2.285l-0.534,2.952h-1.554l0.571,1.162h0.761l-0.199,1.083l0.907,1.581l0.489-2.664h3.022l-0.792,4.514h1.216
			l0.792-4.514h2.487v-1.162h-2.267l0.516-2.952H34.365z M30.588,58.455h-3.004l0.535-2.952h3.003L30.588,58.455z"/>
		<path fill="#FFFFFF" d="M39.082,64.377c-1.658,0-3.095-0.743-3.943-2.038v1.791h-1.364V50.056h1.364v5.447
			c0.866-1.314,2.266-2.038,3.961-2.038c2.985,0,5.307,2.381,5.307,5.447C44.407,62.035,42.123,64.377,39.082,64.377z M39.064,54.76
			c-2.248,0-4.017,1.809-4.017,4.113s1.788,4.209,3.999,4.209c2.267,0,3.98-1.81,3.98-4.209C43.025,56.531,41.33,54.76,39.064,54.76
			z"/>
		<path fill="#FFFFFF" d="M53.4,64.13v-1.829c-1.069,1.486-2.174,2.076-3.888,2.076c-3.096,0-5.398-2.323-5.398-5.428
			c0-3.123,2.285-5.485,5.307-5.485c1.75,0,2.985,0.648,3.98,2.095v-1.848h1.364V64.13H53.4z M49.457,54.76
			c-2.193,0-3.962,1.828-3.962,4.094c0,2.38,1.75,4.228,4.035,4.228c2.174,0,3.87-1.848,3.87-4.209
			C53.4,56.55,51.668,54.76,49.457,54.76z"/>
		<path fill="#FFFFFF" d="M62.797,64.13v-5.466c0-2.837-1.252-3.904-3.113-3.904c-1.824,0-3.077,1.085-3.077,3.637v5.732h-1.364
			V53.712h1.364v1.353c0.848-1.067,1.916-1.6,3.243-1.6c2.523,0,4.312,1.543,4.312,5.199v5.466H62.797z"/>
		<path fill="#FFFFFF" d="M73.577,64.13v-1.885c-1.014,1.504-2.155,2.133-3.833,2.133c-3.113,0-5.49-2.361-5.49-5.447
			c0-3.104,2.321-5.466,5.361-5.466c1.585,0,2.967,0.667,3.962,1.905v-5.313h1.363V64.13H73.577z M69.578,54.76
			c-2.192,0-3.943,1.828-3.943,4.113c0,2.38,1.77,4.209,4.072,4.209c2.156,0,3.926-1.905,3.926-4.19S71.809,54.76,69.578,54.76z"/>
		<path fill="#FFFFFF" d="M82.938,64.13v-1.619c-0.682,1.295-1.676,1.867-3.242,1.867c-2.562,0-4.275-1.409-4.275-5.047v-5.618
			h1.363v5.618c0,2.647,1.068,3.752,3.022,3.752c1.843,0,3.132-1.181,3.132-4.019v-5.352h1.364V64.13H82.938z"/>
		<path fill="#FFFFFF" d="M92.336,64.13v-5.466c0-2.837-1.254-3.904-3.115-3.904c-1.824,0-3.076,1.085-3.076,3.637v5.732h-1.363
			V53.712h1.363v1.353c0.848-1.067,1.916-1.6,3.242-1.6c2.525,0,4.313,1.543,4.313,5.199v5.466H92.336z"/>
		<path fill="#FFFFFF" d="M103.317,66.358c-0.866,1.181-2.341,1.866-4.091,1.866c-2.543,0-4.33-1.333-5.066-3.771h1.326
			c1.031,1.885,2.008,2.476,3.703,2.476c2.433,0,3.704-1.466,3.704-4.208v-0.705c-0.792,1.6-2.046,2.361-3.851,2.361
			c-2.949,0-5.252-2.361-5.252-5.409c0-3.142,2.211-5.504,5.159-5.504c1.695,0,2.931,0.667,3.943,2.095v-1.848h1.363v8.551
			C104.257,64.301,104,65.406,103.317,66.358z M99.023,54.76c-2.229,0-3.851,1.714-3.851,4.094c0,2.418,1.659,4.228,3.87,4.228
			c2.192,0,3.851-1.848,3.851-4.285C102.894,56.531,101.198,54.76,99.023,54.76z"/>
	</g>
	<path clip-path="url(#SVGID_2_)" fill="#3F4DA1" d="M27.104,85.072c0,8.112,6.169,15.135,15.157,18.536
		c3.691,1.396,7.857,2.183,12.266,2.183c15.146,0,27.424-9.275,27.424-20.719c0-11.442-12.277-20.718-27.424-20.718
		C39.382,64.354,27.104,73.63,27.104,85.072z"/>
	<polygon clip-path="url(#SVGID_2_)" fill="#3F4DA1" points="32.888,110.958 42.261,103.608 35.605,100.067 	"/>
	<g clip-path="url(#SVGID_2_)">
		<path fill="#FFFFFF" d="M47.519,87.708v2.293c0,2.76-1.335,4.338-3.911,4.338c-2.576,0-3.911-1.578-3.911-4.338v-8.973
			c0-2.76,1.335-4.338,3.911-4.338c2.575,0,3.911,1.578,3.911,4.338v1.677h-2.48v-1.849c0-1.232-0.525-1.701-1.359-1.701
			c-0.835,0-1.359,0.469-1.359,1.701v9.316c0,1.232,0.524,1.677,1.359,1.677c0.834,0,1.359-0.444,1.359-1.677v-2.465H47.519z"/>
		<path fill="#FFFFFF" d="M54.648,89.138h0.048l1.765-12.25h3.648v17.254h-2.48V81.769h-0.047l-1.765,12.373h-2.48L51.43,81.94
			h-0.048v12.201h-2.289V76.888h3.648L54.648,89.138z"/>
		<path fill="#FFFFFF" d="M65.547,76.69c2.551,0,3.862,1.578,3.862,4.338v0.543H66.93v-0.715c0-1.232-0.477-1.701-1.313-1.701
			c-0.834,0-1.311,0.469-1.311,1.701c0,1.257,0.524,2.193,2.241,3.746c2.194,1.997,2.886,3.427,2.886,5.398
			c0,2.76-1.336,4.338-3.911,4.338s-3.911-1.578-3.911-4.338V88.94h2.48v1.232c0,1.232,0.525,1.677,1.359,1.677
			s1.359-0.444,1.359-1.677c0-1.257-0.525-2.193-2.242-3.746c-2.193-1.996-2.885-3.426-2.885-5.398
			C61.684,78.269,62.994,76.69,65.547,76.69z"/>
	</g>
	<path clip-path="url(#SVGID_2_)" fill="#AC6CAD" d="M20.034,34.345c2.568,1.582,5.403,2.853,8.453,3.751
		c-2.882-2.256-4.861-5.353-5.464-8.719c2.617,2.03,5.605,3.713,8.875,4.953l-6.175,7.684C23.398,39.728,21.47,37.132,20.034,34.345
		z"/>
	<path clip-path="url(#SVGID_2_)" fill="#AC6CAD" d="M97.309,15.047c1.423,1.047,2.391,2.413,2.713,4.021
		c0.607,3.044-1.24,6.24-4.551,8.588c2.205-0.519,4.21-1.359,5.9-2.405c0.008,0.037,0.017,0.073,0.023,0.11
		c0.852,4.251-3.098,8.793-9.119,10.92c1.174-0.042,2.39-0.189,3.622-0.453c0.871-0.187,1.706-0.422,2.511-0.701
		c-0.973,3.667-5.082,7.107-10.563,8.581L72.389,29.882C83.055,27.027,91.891,21.557,97.309,15.047z"/>
</g>
<circle fill="none" stroke="#FFFFFF" stroke-width="3" stroke-miterlimit="10" cx="62.826" cy="62.053" r="62.5"/>
</svg>
