<?xml version="1.0" encoding="utf-8"?>
<!-- Generator: Adobe Illustrator 16.0.0, SVG Export Plug-In . SVG Version: 6.00 Build 0)  -->
<!DOCTYPE svg PUBLIC "-//W3C//DTD SVG 1.1//EN" "http://www.w3.org/Graphics/SVG/1.1/DTD/svg11.dtd">
<svg version="1.1" id="Layer_1" xmlns="http://www.w3.org/2000/svg" xmlns:xlink="http://www.w3.org/1999/xlink" x="0px" y="0px"
	 width="444px" height="444px" viewBox="0 0 444 444" enable-background="new 0 0 444 444" xml:space="preserve">
<path fill="#009688" d="M377.435,114.5"/>
<path fill="#009688" d="M392.563,129.63"/>
<path fill="#009688" d="M389.865,128.969c-27.643-33.423-73.269-58.071-126.933-64.287c-93.722-10.856-220.041-9.107-226.7,90.617
	c-4.821,72.19,102.832,158.788,196.555,169.645c27.285,3.16,53.638,1.208,77.494-4.921
	c58.088-14.922,101.376-54.608,107.276-105.555c2.799-24.163-3.18-47.779-15.897-68.902L389.865,128.969z"/>
<polygon fill="#009688" points="377.564,352.578 312.736,306.108 358.773,283.722 "/>
<g>
	<path fill="#FFFFFF" d="M89.234,184.791v-5.186h-8.416l3.485-19.126h-5.695l-3.4,19.126H61.352l3.485-19.126h-5.44l-3.57,19.126
		H44.351v5.186h10.541l-2.465,13.176H45.22l2.361,5.186h3.826l-1.023,5.391l4.201,6.976l2.348-12.367h13.941l-3.655,20.146h5.61
		l3.655-20.146h11.476v-5.186H77.503l2.38-13.176H89.234z M71.808,197.967H57.952l2.465-13.176h13.856L71.808,197.967z"/>
	<path fill="#FFFFFF" d="M110.992,224.404c-7.651,0-14.281-3.315-18.191-9.096v7.991H86.51v-62.82H92.8v24.312
		c3.995-5.866,10.456-9.096,18.276-9.096c13.771,0,24.482,10.626,24.482,24.312C135.559,213.948,125.018,224.404,110.992,224.404z
		 M110.907,181.476c-10.371,0-18.532,8.076-18.532,18.361s8.246,18.787,18.447,18.787c10.456,0,18.361-8.076,18.361-18.787
		C129.183,189.381,121.362,181.476,110.907,181.476z"/>
	<path fill="#FFFFFF" d="M177.037,223.299v-8.161c-4.93,6.63-10.031,9.266-17.937,9.266c-14.281,0-24.907-10.371-24.907-24.227
		c0-13.941,10.541-24.482,24.482-24.482c8.076,0,13.771,2.891,18.361,9.351V176.8h6.291v46.499H177.037z M158.846,181.476
		c-10.116,0-18.276,8.161-18.276,18.276c0,10.626,8.076,18.872,18.617,18.872c10.031,0,17.851-8.246,17.851-18.787
		C177.037,189.466,169.046,181.476,158.846,181.476z"/>
	<path fill="#FFFFFF" d="M220.386,223.299v-24.397c0-12.666-5.78-17.426-14.366-17.426c-8.416,0-14.196,4.845-14.196,16.236v25.587
		h-6.291V176.8h6.291v6.035c3.91-4.76,8.84-7.141,14.961-7.141c11.646,0,19.891,6.886,19.891,23.207v24.397H220.386z"/>
	<path fill="#FFFFFF" d="M270.111,223.299v-8.416c-4.676,6.715-9.947,9.521-17.682,9.521c-14.367,0-25.333-10.541-25.333-24.312
		c0-13.856,10.712-24.397,24.737-24.397c7.311,0,13.686,2.976,18.277,8.501v-23.717h6.289v62.82H270.111z M251.664,181.476
		c-10.115,0-18.191,8.161-18.191,18.361c0,10.626,8.16,18.787,18.787,18.787c9.945,0,18.105-8.501,18.105-18.702
		S261.949,181.476,251.664,181.476z"/>
	<path fill="#FFFFFF" d="M313.289,223.299v-7.226c-3.145,5.78-7.734,8.331-14.961,8.331c-11.816,0-19.721-6.291-19.721-22.527V176.8
		h6.289v25.077c0,11.816,4.932,16.747,13.941,16.747c8.502,0,14.451-5.271,14.451-17.937V176.8h6.291v46.499H313.289z"/>
	<path fill="#FFFFFF" d="M356.639,223.299v-24.397c0-12.666-5.779-17.426-14.365-17.426c-8.416,0-14.197,4.845-14.197,16.236v25.587
		h-6.289V176.8h6.289v6.035c3.912-4.76,8.842-7.141,14.963-7.141c11.645,0,19.891,6.886,19.891,23.207v24.397H356.639z"/>
	<path fill="#FFFFFF" d="M407.299,233.245c-3.996,5.271-10.797,8.331-18.871,8.331c-11.732,0-19.977-5.95-23.377-16.831h6.119
		c4.762,8.416,9.266,11.051,17.088,11.051c11.221,0,17.086-6.545,17.086-18.787v-3.145c-3.656,7.14-9.436,10.541-17.768,10.541
		c-13.6,0-24.227-10.541-24.227-24.142c0-14.026,10.201-24.567,23.803-24.567c7.82,0,13.516,2.976,18.191,9.351V176.8h6.291v38.168
		C411.635,224.064,410.443,228.994,407.299,233.245z M387.492,181.476c-10.285,0-17.768,7.65-17.768,18.276
		c0,10.796,7.652,18.872,17.852,18.872c10.117,0,17.768-8.246,17.768-19.126C405.344,189.381,397.523,181.476,387.492,181.476z"/>
</g>
<path fill="#006A5C" d="M55.736,323.77c0,36.203,28.459,67.545,69.916,82.728c17.026,6.234,36.245,9.743,56.584,9.743
	c69.864,0,126.5-41.4,126.5-92.471s-56.636-92.471-126.5-92.471C112.373,231.299,55.736,272.699,55.736,323.77z"/>
<polygon fill="#006A5C" points="82.415,439.299 125.652,406.497 94.948,390.694 "/>
<g>
	<path fill="#FFFFFF" d="M149.905,335.535v10.229c0,12.319-6.16,19.36-18.04,19.36c-11.88,0-18.04-7.041-18.04-19.36v-40.04
		c0-12.32,6.16-19.36,18.04-19.36c11.88,0,18.04,7.04,18.04,19.36v7.479h-11.44v-8.25c0-5.5-2.42-7.59-6.27-7.59
		s-6.27,2.09-6.27,7.59v41.581c0,5.5,2.42,7.479,6.27,7.479s6.27-1.979,6.27-7.479v-11H149.905z"/>
	<path fill="#FFFFFF" d="M182.793,341.914h0.22l8.14-54.67h16.83v77h-11.44v-55.22h-0.22l-8.14,55.22h-11.44l-8.8-54.449h-0.22
		v54.449h-10.56v-77h16.83L182.793,341.914z"/>
	<path fill="#FFFFFF" d="M233.063,286.364c11.77,0,17.819,7.04,17.819,19.36v2.42h-11.44v-3.19c0-5.5-2.199-7.59-6.049-7.59
		c-3.851,0-6.051,2.09-6.051,7.59c0,5.61,2.42,9.79,10.34,16.72c10.121,8.91,13.311,15.291,13.311,24.091
		c0,12.319-6.16,19.36-18.04,19.36c-11.88,0-18.041-7.041-18.041-19.36v-4.729h11.441v5.5c0,5.5,2.42,7.479,6.27,7.479
		c3.851,0,6.271-1.979,6.271-7.479c0-5.611-2.42-9.791-10.341-16.721c-10.12-8.91-13.31-15.29-13.31-24.09
		C215.242,293.404,221.292,286.364,233.063,286.364z"/>
</g>
<path fill="#009688" d="M23.121,90.365c11.848,7.059,24.922,12.732,38.989,16.741C48.816,97.038,39.688,83.217,36.909,68.192
	c12.071,9.06,25.854,16.571,40.94,22.104l-28.485,34.296C38.643,114.388,29.744,102.801,23.121,90.365z"/>
<path fill="#009688" d="M379.578,4.233C386.14,8.908,390.604,15,392.087,22.177c2.809,13.587-5.719,27.849-20.991,38.33
	c10.175-2.315,19.423-6.064,27.221-10.735c0.038,0.163,0.074,0.326,0.109,0.491c3.922,18.975-14.295,39.246-42.067,48.739
	c5.415-0.187,11.021-0.847,16.707-2.021c4.018-0.831,7.872-1.884,11.583-3.127c-4.489,16.37-23.444,31.721-48.724,38.297
	l-71.302-61.705C313.822,57.705,354.584,33.29,379.578,4.233z"/>
</svg>
